<?xml version="1.0" encoding="utf-8"?>
<!-- Svg Vector Icons : http://www.onlinewebfonts.com/icon -->
<!DOCTYPE svg PUBLIC "-//W3C//DTD SVG 1.1//EN" "http://www.w3.org/Graphics/SVG/1.1/DTD/svg11.dtd">
<svg version="1.1" xmlns="http://www.w3.org/2000/svg" xmlns:xlink="http://www.w3.org/1999/xlink" x="0px" y="0px" viewBox="0 0 1000 1000" enable-background="new 0 0 1000 1000" fill="#fff" xml:space="preserve">
<metadata> Svg Vector Icons : http://www.onlinewebfonts.com/icon </metadata>
<g><path d="M794,794c-53.9,0-98,44.1-98,98c0,53.9,44.1,98,98,98s98-44.1,98-98C892,838.1,847.9,794,794,794z M10,10v98h98l176.4,372.4L215.8,598c-4.9,14.7-9.8,34.3-9.8,49c0,53.9,44.1,98,98,98h588v-98H323.6c-4.9,0-9.8-4.9-9.8-9.8v-4.9l44.1-83.3h362.6c39.2,0,68.6-19.6,83.3-49l176.4-318.5c9.8-9.8,9.8-14.7,9.8-24.5c0-29.4-19.6-49-49-49H215.8l-44.1-98L10,10L10,10z M304,794c-53.9,0-98,44.1-98,98c0,53.9,44.1,98,98,98c53.9,0,98-44.1,98-98C402,838.1,357.9,794,304,794z"/></g>
</svg>